<?xml version="1.0" encoding="UTF-8"?>
<svg id="Capa_1" data-name="Capa 1" xmlns="http://www.w3.org/2000/svg" viewBox="0 0 249.88 79.06">
  <defs>
    <style>
      .cls-1 {
        fill: #fff;
      }
    </style>
  </defs>
  <path class="cls-1" d="M227.69,15.63c2.72,0,4.43,1.91,4.43,4.32s-1.72,4.35-4.43,4.35-4.41-1.96-4.41-4.35,1.69-4.32,4.41-4.32ZM227.69,23.13c2.11,0,3.14-1.48,3.14-3.18s-1.03-3.15-3.14-3.15-3.11,1.46-3.11,3.15,1,3.18,3.11,3.18ZM227.74,20.55h-.61v1.29h-.88v-3.96h1.67c.91,0,1.32.38,1.32,1.12v.43c0,.45-.2.79-.56.95l1.05,1.46h-1.03l-.96-1.29ZM227.86,18.66h-.74v1.1h.74c.39,0,.49-.14.49-.41v-.29c0-.31-.12-.41-.49-.41Z"/>
  <g>
    <path class="cls-1" d="M41.96,29.17c-.25,1.5-1.74,2.42-3.21,2.03-3.45-.93-6.07-1.4-7.86-1.4-2.24,0-3.77.98-4.6,2.94-.83,1.96-1.25,5.07-1.25,9.31s.38,7.34,1.17,9.28c.78,1.93,2.38,2.9,4.79,2.9.7,0,2.06-.2,4.07-.6v-5.73h-3.4v-6.34c0-1.42,1.15-2.57,2.57-2.57h9.28c1.42,0,2.57,1.15,2.57,2.57v20.74c0,1.42-1.15,2.57-2.57,2.57h-6.34l-1.21-2.41h-.3c-.86.7-1.54,1.24-2.04,1.58-1.41,1.06-3.39,1.59-5.96,1.59-10.51,0-15.76-7.95-15.76-23.84,0-7.95,1.38-14.02,4.15-18.22,2.77-4.2,7.42-6.3,13.95-6.3,4.35,0,8.19.55,11.53,1.67,1.17.39,1.83,1.62,1.63,2.84l-1.22,7.39Z"/>
    <path class="cls-1" d="M48.47,46.66c0-6.61,1.27-11.4,3.81-14.37,2.54-2.97,6.52-4.45,11.92-4.45s9.34,1.46,11.81,4.37c2.47,2.92,3.7,7.71,3.7,14.37s-1.21,11.51-3.62,14.52c-2.41,3.02-6.36,4.53-11.84,4.53s-9.48-1.51-11.99-4.53c-2.52-3.01-3.77-7.83-3.77-14.44ZM66.61,39.53c-.33-1.01-1.15-1.51-2.45-1.51s-2.14.5-2.49,1.51c-.36,1.01-.53,3.12-.53,6.34v1.81c0,3.57.18,5.88.53,6.94.35,1.06,1.17,1.59,2.45,1.59s2.1-.53,2.45-1.59c.35-1.06.53-3.22.53-6.49v-2.19c0-3.27-.16-5.4-.49-6.41Z"/>
    <path class="cls-1" d="M82.85,56.58V19.09c0-1.42,1.15-2.57,2.57-2.57h7.32c1.42,0,2.57,1.15,2.57,2.57v33.49c0,.86.13,2.11.57,2.39.39.25,2.61.03,4.16-.55,0,0,.59,4.21.93,6.85.21,1.63-.08,3.16-2.17,3.68-2,.5-3.37.68-6.05.68s-5.8-.69-7.43-2.08c-1.63-1.38-2.45-3.71-2.45-6.98Z"/>
    <path class="cls-1" d="M102.02,46.66c0-6.61,1.27-11.4,3.81-14.37,2.54-2.97,6.52-4.45,11.92-4.45s9.34,1.46,11.81,4.37c2.47,2.92,3.7,7.71,3.7,14.37s-1.21,11.51-3.62,14.52c-2.41,3.02-6.36,4.53-11.84,4.53s-9.48-1.51-11.99-4.53c-2.52-3.01-3.77-7.83-3.77-14.44ZM120.16,39.53c-.33-1.01-1.15-1.51-2.45-1.51s-2.14.5-2.49,1.51c-.36,1.01-.53,3.12-.53,6.34v1.81c0,3.57.18,5.88.53,6.94.35,1.06,1.17,1.59,2.45,1.59s2.1-.53,2.45-1.59c.35-1.06.53-3.22.53-6.49v-2.19c0-3.27-.16-5.4-.49-6.41Z"/>
    <path class="cls-1" d="M152.21,38.85c-1.49,0-2.48.67-2.98,2-.5,1.33-.76,3.41-.76,6.22s.24,4.85.72,6.11c.48,1.25,1.48,1.89,3.02,1.89s3.53-.28,5.99-.83l1.05,7.47c.18,1.26-.59,2.49-1.81,2.83-2.62.72-5.01,1.09-7.16,1.09-4.78,0-8.39-1.61-10.83-4.83-2.44-3.22-3.66-7.72-3.66-13.5s1.26-10.47,3.77-14.07c2.51-3.6,6.16-5.39,10.94-5.39,2.79,0,5.37.37,7.73,1.11,1.15.36,1.82,1.55,1.68,2.74l-1.11,9.05c-2.91-1.25-5.11-1.89-6.6-1.89Z"/>
    <path class="cls-1" d="M190.42,38.17l-.38,15.62c0,.96.24,1.6.72,1.92.48.32,1.29.49,2.45.49l-1.13,9.12c-2.92.2-4.52.3-4.83.3-3.72,0-6.08-1.28-7.09-3.85h-.38c-1.86,2.57-4.73,3.85-8.6,3.85-2.97,0-5.24-.96-6.82-2.87-1.58-1.91-2.38-4.53-2.38-7.85,0-4.17,1.29-7.07,3.88-8.67,2.59-1.61,6.68-2.67,12.26-3.17v-1.81c0-1.41-.71-2.11-2.11-2.11-1.96,0-4.82.48-8.58,1.45-1.47.38-2.95-.55-3.21-2.04l-1-5.87c-.23-1.33.64-2.64,1.96-2.95,5.39-1.27,9.96-1.91,13.7-1.91,4.28,0,7.27.83,8.98,2.49,1.71,1.66,2.57,4.27,2.57,7.84ZM175.86,56.8c1.86,0,2.79-.98,2.79-2.94v-3.7c-1.86.25-3.18.64-3.96,1.17-.78.53-1.17,1.42-1.17,2.68,0,1.86.78,2.79,2.34,2.79Z"/>
    <path class="cls-1" d="M208.29,31.38c2.76-2.36,5.81-3.55,9.12-3.55s5.65.77,6.98,2.3c1.33,1.54,2,3.84,2,6.9v25.27c0,1.42-1.15,2.57-2.57,2.57h-7.69c-1.42,0-2.57-1.15-2.57-2.57v-20.97c0-1.25-.56-1.89-1.66-1.89-1.41,0-2.59.35-3.55,1.06v21.8c0,1.42-1.15,2.57-2.57,2.57h-7.54c-1.42,0-2.57-1.15-2.57-2.57v-31c0-1.42,1.15-2.57,2.57-2.57h8.97l.76,2.64h.3Z"/>
  </g>
</svg>