<?xml version="1.0" encoding="UTF-8"?>
<svg id="Capa_1" xmlns="http://www.w3.org/2000/svg" version="1.1" viewBox="0 0 229.89 49.93">
  <!-- Generator: Adobe Illustrator 30.2.1, SVG Export Plug-In . SVG Version: 2.1.1 Build 1)  -->
  <defs>
    <style>
      .st0 {
        fill: #234196;
      }
    </style>
  </defs>
  <g id="logo_horizontal_rgb_azul-01">
    <g id="Grupo_3476">
      <g id="Grupo_3472">
        <g id="Grupo_3471">
          <path id="Trazado_2962" class="st0" d="M57.2,48.43c.03.08.05.16.06.24.01.05,0,.1-.04.13-.05.03-.11.05-.17.06-.08,0-.19.01-.33.01s-.26,0-.34,0c-.06,0-.13,0-.19-.02-.03,0-.07-.03-.09-.05-.02-.03-.03-.06-.04-.09l-.37-1.11h-2.08l-.35,1.08s-.03.07-.04.1c-.02.03-.05.05-.09.06-.06.02-.12.03-.18.03-.07,0-.18,0-.3,0s-.23,0-.31-.01c-.06,0-.11-.02-.15-.06-.03-.04-.04-.09-.03-.14.01-.08.04-.16.06-.24l1.71-4.91s.03-.08.06-.12c.03-.03.07-.06.11-.07.07-.02.14-.03.21-.03.09,0,.21,0,.35,0,.17,0,.3,0,.4,0,.08,0,.16.01.23.03.05.01.09.04.12.07.03.04.05.08.06.13l1.73,4.91ZM54.66,44.37h0l-.78,2.35h1.57l-.79-2.35Z"/>
          <path id="Trazado_2963" class="st0" d="M62.29,44.99c0,.28-.04.56-.15.83-.09.23-.24.44-.43.6-.2.17-.43.3-.68.37-.31.09-.63.13-.95.13h-.46v1.77s0,.05-.03.07c-.02.03-.06.05-.09.06-.06.02-.11.03-.17.04-.09,0-.18.01-.27.01-.09,0-.18,0-.27-.01-.06,0-.12-.02-.18-.04-.03-.01-.07-.03-.09-.06-.02-.02-.02-.05-.02-.07v-4.98c0-.11.03-.22.1-.3.07-.07.17-.1.27-.1h1.3c.13,0,.25,0,.37.02s.26.03.43.06c.17.04.34.1.5.18.16.08.31.2.43.33.12.14.21.3.27.48.08.19.11.4.11.6ZM61.11,45.07c0-.17-.03-.33-.1-.48-.06-.11-.14-.21-.25-.28-.1-.06-.2-.1-.31-.12-.11-.02-.23-.02-.34-.02h-.48v1.88h.5c.15,0,.31-.02.45-.07.11-.04.22-.11.3-.2.08-.09.14-.2.18-.31.04-.13.06-.26.06-.39h0Z"/>
          <path id="Trazado_2964" class="st0" d="M67.63,48.43c.03.08.05.16.06.24.01.05,0,.1-.04.13-.05.03-.11.05-.17.06-.08,0-.19.01-.33.01s-.26,0-.34,0c-.06,0-.13,0-.19-.02-.03,0-.07-.03-.09-.05-.02-.03-.03-.06-.04-.09l-.37-1.11h-2.08l-.35,1.08s-.03.07-.04.1c-.02.03-.05.05-.09.06-.06.02-.12.03-.18.03-.07,0-.18,0-.3,0s-.23,0-.31-.01c-.06,0-.11-.02-.15-.06-.03-.04-.04-.09-.03-.14.01-.08.04-.16.06-.24l1.71-4.91s.03-.08.06-.12c.03-.03.07-.06.11-.07.07-.02.14-.03.21-.03.09,0,.21,0,.35,0,.17,0,.3,0,.4,0,.08,0,.16.01.23.03.05.01.09.04.12.07.03.04.05.08.06.13l1.73,4.91ZM65.09,44.37h0l-.78,2.35h1.57l-.79-2.35Z"/>
          <path id="Trazado_2965" class="st0" d="M72.21,47.18c0,.26-.05.53-.16.77-.1.21-.25.4-.44.55-.19.15-.42.26-.65.33-.26.08-.53.11-.79.11-.18,0-.36-.02-.53-.05-.15-.03-.29-.06-.43-.12-.11-.04-.21-.08-.31-.14-.07-.04-.13-.08-.18-.13-.04-.04-.07-.1-.08-.16-.02-.1-.03-.2-.02-.3,0-.09,0-.16,0-.22,0-.05.01-.1.03-.15,0-.03.03-.06.05-.08.02-.02.05-.02.07-.02.06,0,.12.03.17.07.09.06.18.11.28.15.13.06.27.11.41.15.18.05.36.07.55.07.12,0,.25-.01.37-.05.1-.03.19-.08.27-.14.08-.06.14-.14.18-.22.04-.09.06-.19.06-.29,0-.12-.03-.23-.1-.32-.07-.1-.16-.18-.27-.24-.12-.08-.24-.14-.37-.2-.14-.06-.28-.13-.43-.2-.15-.07-.29-.15-.43-.23-.14-.09-.26-.19-.37-.31-.11-.13-.2-.27-.27-.43-.15-.42-.14-.89.04-1.3.09-.2.23-.37.4-.5.18-.14.38-.24.59-.3.23-.07.48-.1.72-.1.13,0,.26.01.39.03.12.02.25.05.37.08.1.03.2.07.3.12.06.03.12.06.18.11.02.02.04.04.06.07.01.02.02.05.03.08,0,.04.01.08.02.12v.19c0,.07,0,.14,0,.21,0,.05-.01.1-.02.14,0,.03-.02.06-.04.08-.02.02-.05.03-.07.02-.05,0-.11-.03-.15-.06-.07-.04-.15-.08-.25-.13-.11-.05-.23-.1-.35-.13-.14-.04-.29-.06-.43-.06-.11,0-.22.01-.32.04-.08.03-.16.07-.23.12-.06.05-.11.12-.13.19-.03.07-.04.15-.04.23,0,.11.03.23.1.32.07.1.16.18.27.24.12.08.25.14.38.2.14.06.29.13.44.2.15.07.3.15.44.23.14.09.27.19.38.31.12.13.21.27.27.43.07.19.11.38.1.58Z"/>
          <path id="Trazado_2966" class="st0" d="M74.73,48.69s0,.05-.03.07c-.02.03-.06.05-.09.06-.06.02-.11.03-.17.04-.09,0-.18.01-.27.01-.09,0-.18,0-.27-.01-.06,0-.12-.02-.18-.04-.03-.01-.07-.03-.09-.06-.02-.02-.03-.05-.03-.07v-5.23s0-.05.03-.07c.03-.03.06-.05.1-.06.06-.02.12-.03.18-.04.09,0,.18-.01.27-.01.09,0,.18,0,.27.01.06,0,.12.02.17.04.03.01.07.03.09.06.02.02.03.05.03.07v5.23h0Z"/>
          <path id="Trazado_2967" class="st0" d="M81.44,46.01c0,.42-.05.83-.17,1.23-.1.34-.27.65-.51.92-.23.26-.51.45-.83.58-.37.14-.76.21-1.15.2-.38,0-.76-.05-1.13-.17-.3-.1-.58-.28-.8-.52-.23-.25-.39-.55-.48-.88-.11-.41-.17-.84-.16-1.27,0-.41.05-.82.17-1.21.1-.34.28-.65.51-.91.23-.25.52-.45.84-.58.37-.14.76-.21,1.16-.2.38,0,.75.05,1.11.17.3.1.58.28.8.51.23.25.39.55.49.87.11.41.17.83.16,1.25ZM80.26,46.07c0-.27-.02-.53-.07-.79-.04-.22-.12-.42-.23-.61-.11-.17-.26-.3-.44-.39-.21-.1-.45-.15-.68-.14-.24,0-.48.04-.69.15-.18.1-.34.24-.45.42-.12.19-.2.39-.24.61-.05.24-.07.49-.07.74,0,.27.02.55.07.81.04.22.12.43.23.62.11.17.26.31.44.39.22.1.45.14.69.13.24,0,.48-.04.7-.15.18-.1.34-.24.45-.42.12-.19.2-.4.24-.62.04-.25.06-.5.06-.75h0Z"/>
          <path id="Trazado_2968" class="st0" d="M87.47,48.45c0,.06-.01.12-.04.18-.02.05-.05.09-.09.13-.04.04-.08.06-.14.08-.05.02-.11.02-.16.02h-.48c-.09,0-.17,0-.26-.03-.07-.02-.14-.06-.2-.11-.07-.06-.13-.13-.18-.21-.06-.09-.12-.21-.2-.35l-1.38-2.59c-.08-.15-.16-.32-.24-.5s-.16-.35-.22-.52h0c.01.21.02.41.03.61s0,.41,0,.63v2.9s0,.05-.02.07c-.02.03-.05.05-.08.06-.05.02-.1.03-.15.04-.08,0-.17.01-.25.01-.08,0-.16,0-.25-.01-.05,0-.11-.02-.15-.04-.03-.01-.06-.03-.08-.06-.01-.02-.02-.05-.02-.07v-4.97c0-.11.04-.22.12-.3.08-.07.18-.1.29-.1h.6c.09,0,.18,0,.27.03.07.02.14.05.2.09.07.05.12.11.16.18.06.09.11.18.16.28l1.08,2.02c.06.12.12.24.19.36s.12.24.18.35.11.23.17.35.11.23.16.34h0c0-.2-.02-.41-.02-.62s0-.43,0-.62v-2.6s0-.05.02-.07c.02-.03.05-.05.08-.06.05-.02.1-.03.16-.04.08,0,.17-.01.25-.01.08,0,.16,0,.24.01.05,0,.1.02.15.04.03.01.06.03.08.06.01.02.02.05.02.07v4.97Z"/>
          <path id="Trazado_2969" class="st0" d="M93.73,48.43c.03.08.05.16.06.24.01.05,0,.1-.04.13-.05.03-.11.05-.17.06-.08,0-.19.01-.33.01s-.26,0-.34,0c-.06,0-.13,0-.19-.02-.03,0-.07-.03-.09-.05-.02-.03-.03-.06-.04-.09l-.37-1.11h-2.08l-.35,1.08s-.03.07-.04.1c-.02.03-.05.05-.09.06-.06.02-.12.03-.17.03-.08,0-.17,0-.3,0s-.23,0-.31-.01c-.06,0-.11-.02-.15-.06-.03-.04-.04-.09-.03-.14.02-.08.04-.16.06-.24l1.71-4.91s.03-.08.06-.12c.03-.03.07-.06.11-.07.07-.02.14-.03.21-.03.09,0,.21,0,.35,0,.17,0,.3,0,.4,0,.08,0,.16.01.23.03.05.01.09.04.12.07.03.04.05.08.06.13l1.73,4.91ZM91.19,44.37h0l-.78,2.35h1.57l-.79-2.35Z"/>
          <path id="Trazado_2970" class="st0" d="M99.63,45.99c0,.44-.06.88-.2,1.3-.11.34-.31.64-.57.88-.26.24-.57.41-.91.5-.41.11-.84.17-1.27.16h-1.32c-.09,0-.17-.03-.24-.08-.07-.07-.11-.17-.1-.27v-4.83c0-.1.03-.2.1-.27.07-.06.15-.09.24-.08h1.42c.42,0,.85.05,1.26.18.32.1.62.28.87.51.24.24.42.52.54.84.13.37.2.77.19,1.16ZM98.46,46.03c0-.25-.03-.49-.09-.73-.05-.21-.15-.42-.29-.59-.14-.17-.32-.3-.52-.38-.27-.1-.55-.15-.83-.14h-.57v3.76h.59c.26,0,.53-.03.78-.12.2-.07.38-.2.53-.36.15-.17.26-.38.32-.6.07-.28.1-.56.09-.84h0Z"/>
          <path id="Trazado_2971" class="st0" d="M106.05,46.01c0,.42-.05.83-.17,1.23-.1.34-.28.65-.51.92-.23.26-.51.45-.83.58-.37.14-.76.21-1.15.2-.38,0-.76-.05-1.13-.17-.3-.1-.58-.28-.8-.52-.23-.25-.39-.55-.48-.88-.11-.41-.17-.84-.16-1.27,0-.41.05-.82.17-1.21.1-.34.28-.65.51-.91.23-.25.52-.45.84-.58.37-.14.76-.21,1.16-.2.38,0,.75.05,1.11.17.3.1.58.28.8.51.23.25.39.55.49.87.11.41.17.83.16,1.25ZM104.87,46.07c0-.27-.02-.53-.07-.79-.04-.22-.12-.42-.23-.61-.11-.17-.26-.3-.44-.39-.21-.1-.45-.15-.68-.14-.24,0-.48.04-.69.15-.18.1-.34.24-.45.42-.12.19-.2.39-.24.61-.05.24-.07.49-.07.74,0,.27.02.55.07.81.04.22.12.43.23.62.11.17.26.31.44.39.22.1.45.14.69.13.24,0,.48-.04.7-.15.18-.1.34-.24.45-.42.12-.19.2-.4.24-.62.04-.25.06-.5.06-.75h0Z"/>
          <path id="Trazado_2972" class="st0" d="M110.8,47.18c0,.26-.05.53-.16.77-.1.21-.25.4-.44.55-.19.15-.41.26-.65.33-.26.08-.53.11-.8.11-.18,0-.36-.02-.53-.05-.15-.03-.29-.06-.43-.12-.11-.04-.21-.08-.31-.14-.07-.04-.13-.08-.18-.13-.04-.04-.07-.1-.09-.16-.02-.1-.03-.2-.02-.3,0-.09,0-.16,0-.22,0-.05.01-.1.03-.15,0-.03.03-.06.05-.08.02-.02.05-.02.08-.02.06,0,.12.03.17.07.09.06.18.11.28.15.13.06.27.11.41.15.18.05.36.07.55.07.12,0,.25-.01.37-.05.1-.03.19-.08.27-.14.08-.06.14-.14.17-.22.04-.09.06-.19.06-.29,0-.12-.03-.23-.1-.32-.07-.1-.16-.18-.27-.24-.12-.08-.24-.14-.37-.2-.14-.06-.28-.13-.43-.2-.15-.07-.29-.15-.43-.23-.14-.09-.26-.19-.37-.31-.11-.13-.2-.27-.27-.43-.15-.42-.14-.89.04-1.3.09-.2.23-.37.4-.5.18-.14.38-.24.59-.3.23-.07.48-.1.72-.1.13,0,.26.01.39.03.12.02.25.05.37.08.1.03.2.07.3.12.06.03.12.06.17.11.02.02.04.04.06.07.01.02.02.05.03.08,0,.04.01.08.02.12v.19c0,.07,0,.14,0,.21,0,.05-.01.1-.02.14,0,.03-.02.06-.04.08-.02.02-.05.03-.08.02-.05,0-.11-.03-.15-.06-.07-.04-.15-.08-.25-.13-.11-.05-.23-.1-.35-.13-.14-.04-.29-.06-.43-.06-.11,0-.22.01-.32.04-.08.03-.16.07-.23.12-.06.05-.11.12-.14.19-.03.07-.04.15-.04.23,0,.11.03.23.1.32.07.1.16.18.27.24.12.08.25.14.38.2.14.06.29.13.44.2.15.07.3.15.44.23.14.09.27.19.38.31.12.13.21.27.27.43.08.18.11.38.11.58Z"/>
          <path id="Trazado_2973" class="st0" d="M118.46,44.99c0,.28-.04.56-.15.83-.09.23-.24.44-.42.6-.2.17-.43.3-.68.37-.31.09-.63.13-.95.13h-.46v1.77s0,.05-.03.07c-.02.03-.06.05-.09.06-.06.02-.11.03-.17.04-.09,0-.18.01-.27.01-.09,0-.18,0-.27-.01-.06,0-.12-.02-.17-.04-.03-.01-.07-.03-.09-.06-.02-.02-.02-.05-.02-.07v-4.98c0-.11.03-.22.1-.3.07-.07.17-.1.27-.1h1.3c.13,0,.25,0,.37.02s.26.03.42.06c.17.04.34.1.5.18.16.08.31.2.43.33.12.14.21.3.27.48.08.19.11.4.11.6ZM117.29,45.07c0-.17-.03-.33-.1-.48-.06-.11-.14-.21-.25-.28-.1-.06-.2-.1-.31-.12-.11-.02-.23-.02-.34-.02h-.48v1.88h.5c.15,0,.31-.02.45-.07.11-.04.22-.11.3-.2.08-.09.14-.2.17-.31.04-.13.06-.26.06-.39h0Z"/>
          <path id="Trazado_2974" class="st0" d="M124.83,46.01c0,.42-.05.83-.17,1.23-.1.34-.28.65-.51.92-.23.26-.51.45-.83.58-.37.14-.76.21-1.15.2-.38,0-.76-.05-1.13-.17-.3-.1-.58-.28-.8-.52-.23-.25-.39-.55-.48-.88-.11-.41-.17-.84-.16-1.27,0-.41.05-.82.17-1.21.1-.34.28-.65.51-.91.23-.25.52-.45.84-.58.37-.14.76-.21,1.16-.2.38,0,.75.05,1.11.17.3.1.58.28.8.51.23.25.39.55.49.87.12.41.17.83.16,1.25ZM123.65,46.07c0-.27-.02-.53-.07-.79-.04-.22-.12-.42-.23-.61-.11-.17-.26-.3-.44-.39-.21-.1-.45-.15-.68-.14-.24,0-.48.04-.69.15-.18.1-.34.24-.45.42-.12.19-.2.39-.24.61-.05.24-.07.49-.07.74,0,.27.02.55.07.81.04.22.12.43.23.62.11.17.26.31.44.39.22.1.45.14.69.13.24,0,.48-.04.7-.15.18-.1.34-.24.45-.42.12-.19.2-.4.24-.62.05-.25.07-.5.07-.75h0Z"/>
          <path id="Trazado_2975" class="st0" d="M130.4,48.7s0,.05-.02.08c-.02.03-.05.05-.08.05-.06.02-.12.03-.19.03-.08,0-.2,0-.34,0-.12,0-.21,0-.29,0-.06,0-.12-.01-.17-.03-.03-.01-.06-.03-.09-.06-.02-.03-.03-.06-.04-.09l-.5-1.24c-.06-.14-.12-.26-.17-.37-.05-.1-.11-.19-.19-.27-.07-.07-.15-.13-.24-.17-.1-.04-.21-.06-.32-.06h-.35v2.11s0,.05-.03.07c-.02.03-.06.05-.09.06-.06.02-.11.03-.17.04-.09,0-.18.01-.27.01-.09,0-.18,0-.27-.01-.06,0-.12-.02-.17-.04-.03-.01-.07-.03-.09-.06-.02-.02-.02-.05-.02-.07v-5.02c0-.1.03-.2.1-.27.07-.06.15-.09.24-.08h1.43c.15,0,.27,0,.36,0s.18.01.26.02c.21.03.41.08.6.16.17.07.32.17.45.3.12.13.22.28.29.44.07.19.1.38.1.58,0,.17-.02.34-.07.51-.04.15-.11.29-.21.41-.09.12-.21.23-.34.31-.14.09-.3.16-.46.21.08.04.16.09.23.15.08.06.15.13.21.21.07.09.13.18.18.28.06.1.11.22.17.35l.46,1.09c.04.11.07.19.09.24,0,.04.01.07.02.11ZM128.95,44.94c0-.16-.04-.32-.12-.46-.1-.14-.24-.23-.4-.27-.06-.02-.13-.03-.2-.04-.1,0-.2-.01-.3-.01h-.5v1.57h.57c.14,0,.28-.02.42-.06.11-.03.21-.09.3-.16.08-.07.14-.15.18-.25.04-.1.06-.21.06-.32Z"/>
          <path id="Trazado_2976" class="st0" d="M137.93,43.77c0,.07,0,.14-.01.21,0,.05-.02.1-.03.14-.01.03-.03.06-.05.08-.02.02-.05.02-.07.02h-1.39v4.46s0,.05-.03.07c-.02.03-.06.05-.09.06-.06.02-.12.03-.17.04-.09.01-.18.01-.27.01-.09,0-.18,0-.27-.01-.06,0-.12-.02-.17-.04-.03-.01-.07-.03-.09-.06-.02-.02-.03-.05-.03-.07v-4.46h-1.39s-.05,0-.07-.02c-.02-.02-.04-.05-.05-.08-.02-.05-.03-.09-.03-.14,0-.07-.01-.14-.01-.21,0-.07,0-.15.01-.22,0-.05.02-.1.03-.14.01-.03.03-.05.05-.07.02-.02.05-.02.07-.02h3.9s.05,0,.07.02c.03.02.04.04.05.07.02.05.03.09.03.14,0,.07.01.15.01.22Z"/>
          <path id="Trazado_2977" class="st0" d="M143.62,46.78c0,.31-.04.62-.15.91-.09.26-.24.49-.44.68-.21.19-.45.34-.72.43-.63.19-1.29.2-1.92.02-.26-.08-.5-.22-.7-.4-.19-.18-.34-.41-.44-.66-.11-.3-.16-.61-.15-.93v-3.37s0-.05.02-.08c.02-.03.06-.05.09-.06.06-.02.12-.03.17-.04.09-.01.18-.01.27-.01.09,0,.18,0,.27.01.06,0,.12.02.17.04.03.01.07.03.09.06.02.02.03.05.03.08v3.27c0,.19.02.39.08.57.05.15.13.29.23.4.1.11.23.19.37.24.31.11.64.11.95,0,.14-.05.26-.13.35-.24.1-.11.18-.24.23-.38.05-.17.08-.34.08-.52v-3.33s0-.05.02-.07c.02-.03.06-.05.09-.06.06-.02.12-.03.17-.04.09-.01.18-.01.27-.01.09,0,.18,0,.27.01.06,0,.12.02.17.04.03.01.07.03.09.06.02.02.02.05.02.07v3.32h0Z"/>
          <path id="Trazado_2978" class="st0" d="M154.3,48.69s0,.05-.02.07c-.02.03-.05.05-.08.06-.05.02-.11.03-.17.04-.17.02-.35.02-.52,0-.06,0-.11-.02-.16-.04-.03,0-.06-.03-.08-.06-.02-.02-.02-.05-.02-.07v-4.51h0l-1.6,4.5s-.03.07-.06.09c-.03.03-.06.05-.1.06-.05.02-.11.03-.17.03-.07,0-.15,0-.25,0-.08,0-.16,0-.25-.01-.06,0-.11-.02-.17-.04-.04-.01-.07-.03-.1-.06-.02-.02-.04-.05-.05-.08l-1.55-4.5h0v4.5s0,.05-.02.07c-.02.03-.05.05-.09.06-.05.02-.11.03-.16.04-.09,0-.17.01-.26.01-.09,0-.17,0-.26-.01-.06,0-.11-.02-.16-.04-.03-.01-.06-.03-.09-.06-.02-.02-.02-.05-.02-.07v-4.93c0-.12.03-.24.11-.33.08-.08.2-.12.31-.12h.73c.11,0,.23,0,.34.03.09.02.17.05.24.11.07.05.13.12.17.2.05.1.09.2.12.3l1.2,3.3h.02l1.24-3.29c.03-.1.07-.2.12-.3.04-.08.09-.14.15-.2.06-.05.13-.09.21-.11.09-.02.18-.03.28-.03h.76c.07,0,.14.01.2.03.05.02.1.05.14.09.04.04.06.09.08.14.02.06.03.13.03.19v4.92h-.02Z"/>
          <path id="Trazado_2979" class="st0" d="M160.56,48.43c.03.08.05.16.06.24.01.05,0,.1-.04.13-.05.03-.11.05-.17.06-.08,0-.19.01-.33.01s-.26,0-.34,0c-.06,0-.13,0-.19-.02-.03,0-.07-.03-.09-.05-.02-.03-.03-.06-.04-.09l-.37-1.11h-2.08l-.35,1.08s-.03.07-.04.1c-.02.03-.05.05-.09.06-.06.02-.12.03-.17.03-.08,0-.17,0-.3,0s-.23,0-.31-.01c-.06,0-.11-.02-.15-.06-.03-.04-.04-.09-.03-.14.02-.08.04-.16.06-.24l1.71-4.91s.03-.08.06-.12c.03-.03.07-.06.11-.07.07-.02.14-.03.21-.03.09,0,.21,0,.35,0,.17,0,.3,0,.4,0,.08,0,.16.01.23.03.05.01.09.04.12.07.03.04.05.08.06.13l1.73,4.91ZM158.01,44.37h0l-.78,2.35h1.57l-.79-2.35Z"/>
          <path id="Trazado_2980" class="st0" d="M165.14,47.18c0,.26-.05.53-.16.77-.1.21-.25.4-.44.55-.19.15-.42.26-.65.33-.26.08-.53.11-.8.11-.18,0-.36-.02-.53-.05-.15-.03-.29-.06-.43-.12-.11-.04-.21-.08-.31-.14-.07-.04-.13-.08-.18-.13-.04-.04-.07-.1-.08-.16-.02-.1-.03-.2-.02-.3,0-.09,0-.16,0-.22,0-.05.01-.1.03-.15,0-.03.03-.06.05-.08.02-.02.05-.02.08-.02.06,0,.12.03.17.07.09.06.18.11.28.15.13.06.27.11.41.15.18.05.36.07.55.07.12,0,.25-.01.37-.05.1-.03.19-.08.27-.14.08-.06.14-.14.17-.22.04-.09.06-.19.06-.29,0-.12-.03-.23-.1-.32-.07-.1-.16-.18-.27-.24-.12-.08-.24-.14-.37-.2-.14-.06-.28-.13-.43-.2-.15-.07-.29-.15-.43-.23-.14-.09-.26-.19-.37-.31-.11-.13-.2-.27-.27-.43-.15-.42-.14-.89.04-1.3.09-.2.23-.37.4-.5.18-.14.38-.24.59-.3.23-.07.48-.1.72-.1.13,0,.26.01.39.03.12.02.25.05.37.08.1.03.2.07.3.12.06.03.12.06.17.11.02.02.04.04.06.07.01.02.02.05.03.08,0,.04.01.08.02.12v.19c0,.07,0,.14,0,.21,0,.05-.01.1-.02.14,0,.03-.02.06-.04.08-.02.02-.05.03-.08.02-.05,0-.11-.03-.15-.06-.07-.04-.15-.08-.25-.13-.11-.05-.23-.1-.35-.13-.14-.04-.29-.06-.43-.06-.11,0-.22.01-.32.04-.08.03-.16.07-.23.12-.06.05-.11.12-.14.19-.03.07-.04.15-.04.23,0,.11.03.23.1.32.07.1.16.18.27.24.12.08.25.14.38.2.14.06.29.13.44.2.15.07.3.15.44.23.14.09.27.19.38.31.12.13.21.27.27.43.07.19.11.38.1.58Z"/>
          <path id="Trazado_2981" class="st0" d="M170.35,48c0,.06,0,.12,0,.18,0,.04-.01.09-.02.13,0,.03-.02.06-.04.09-.02.03-.04.06-.07.09-.06.05-.12.09-.18.13-.11.06-.22.11-.33.15-.65.23-1.36.22-2.01,0-.3-.11-.56-.29-.78-.52-.22-.25-.39-.55-.49-.87-.23-.81-.23-1.66.02-2.47.11-.34.29-.65.52-.92.22-.25.5-.44.81-.56.33-.13.68-.2,1.04-.19.15,0,.3.01.45.04.14.02.27.06.4.1.11.04.22.08.33.14.07.04.14.08.2.14.03.03.06.06.08.1.02.03.03.07.04.1,0,.05.02.09.02.14,0,.06,0,.12,0,.2s0,.16,0,.22c0,.05-.01.1-.03.15-.01.03-.03.06-.05.08-.02.02-.04.02-.07.02-.06,0-.12-.03-.16-.08-.07-.05-.15-.1-.25-.17-.12-.07-.24-.12-.37-.17-.17-.05-.34-.08-.52-.07-.2,0-.41.04-.59.13-.17.09-.32.23-.44.38-.13.18-.22.38-.27.6-.07.26-.1.53-.1.8,0,.29.03.57.1.85.06.21.15.41.29.59.12.15.27.27.45.35.19.08.39.12.59.12.17,0,.35-.02.52-.07.13-.04.25-.09.37-.15.09-.05.18-.1.26-.15.04-.04.1-.06.15-.07.02,0,.05,0,.07.02.02.02.04.04.04.07.01.05.02.09.02.14.01.06.03.14.03.24Z"/>
          <path id="Trazado_2982" class="st0" d="M176.59,46.01c0,.42-.05.83-.17,1.23-.1.34-.28.65-.51.92-.23.26-.51.45-.83.58-.37.14-.76.21-1.15.2-.38,0-.76-.05-1.13-.17-.3-.1-.58-.28-.8-.52-.23-.25-.39-.55-.48-.88-.11-.41-.17-.84-.16-1.27,0-.41.05-.82.17-1.21.1-.34.28-.65.51-.91.23-.25.52-.45.84-.58.37-.14.76-.21,1.16-.2.38,0,.75.05,1.11.17.3.1.58.28.8.51.23.25.39.55.49.87.11.41.17.83.16,1.25ZM175.41,46.07c0-.27-.02-.53-.07-.79-.04-.22-.12-.42-.23-.61-.11-.17-.26-.3-.44-.39-.21-.1-.45-.15-.68-.14-.24,0-.48.04-.69.15-.18.1-.34.24-.45.42-.12.19-.2.39-.24.61-.05.24-.07.49-.07.74,0,.27.02.55.07.81.04.22.12.43.23.62.11.17.26.31.44.39.22.1.45.14.69.13.24,0,.48-.04.7-.15.18-.1.34-.24.45-.42.12-.19.2-.4.24-.62.04-.25.06-.5.06-.75h0Z"/>
          <path id="Trazado_2983" class="st0" d="M181.55,43.77c0,.07,0,.14-.01.21,0,.05-.01.1-.03.14-.01.03-.03.06-.05.08-.02.02-.05.02-.07.02h-1.39v4.46s0,.05-.03.07c-.02.03-.06.05-.09.06-.06.02-.12.03-.17.04-.09.01-.18.01-.27.01-.09,0-.18,0-.27-.01-.06,0-.12-.02-.17-.04-.03-.01-.07-.03-.09-.06-.02-.02-.03-.05-.03-.07v-4.46h-1.38s-.05,0-.07-.02c-.02-.02-.04-.05-.05-.08-.02-.05-.03-.09-.03-.14,0-.07-.01-.14-.01-.21,0-.07,0-.15.01-.22,0-.05.02-.1.03-.14.01-.03.03-.05.05-.07.02-.02.05-.02.07-.02h3.9s.05,0,.07.02c.03.02.04.04.05.07.02.05.03.09.03.14,0,.07.01.15,0,.22Z"/>
          <path id="Trazado_2984" class="st0" d="M186.58,48.43c.03.08.05.16.06.24.01.05,0,.1-.04.13-.05.03-.11.05-.17.06-.08,0-.19.01-.33.01s-.26,0-.34,0c-.06,0-.13,0-.19-.02-.03,0-.07-.03-.09-.05-.02-.03-.03-.06-.04-.09l-.37-1.11h-2.08l-.35,1.08s-.03.07-.04.1c-.02.03-.05.05-.09.06-.06.02-.12.03-.17.03-.08,0-.17,0-.3,0s-.23,0-.31-.01c-.06,0-.11-.02-.16-.06-.03-.04-.04-.09-.03-.14.02-.08.04-.16.06-.24l1.71-4.91s.03-.08.06-.12c.03-.03.07-.06.11-.07.07-.02.14-.03.21-.03.09,0,.21,0,.35,0,.17,0,.3,0,.4,0,.08,0,.16.01.23.03.05.01.09.04.12.07.03.04.05.08.06.13l1.73,4.91ZM184.04,44.37h0l-.78,2.35h1.57l-.79-2.35Z"/>
        </g>
      </g>
      <g id="Grupo_3474">
        <path id="Trazado_2985" class="st0" d="M66.29,15.36c.33-1.45.63-2.91.93-4.37.27-1.03.45-1.85.59-2.47s.21-1.02.23-1.2c.07-.5.14-.92.22-1.28s.14-.61.2-.78c.12-.32.22-.65.3-.98,0-.31-.02-.6-.02-.89.08-.18.19-.42.31-.75.03-.1.01-.21-.04-.3-.05-.06-.15-.1-.31-.1h-.18c-.49.28-.93.62-1.33,1.01-.43.44-.8.93-1.1,1.47-.15.28-.34.69-.57,1.22s-.48,1.21-.76,2.03c-.33.93-.68,1.89-1.04,2.87-.05.36-.08.9-.11,1.6,0,.53-.04,1.07-.1,1.6-.03.23-.08.46-.14.68-.07.26-.16.57-.26.93s-.2.68-.28.96c-.07.21-.13.43-.18.65-.28,1.54-.53,2.76-.73,3.67s-.35,1.5-.45,1.78c-.15.43-.34.96-.56,1.57s-.45,1.32-.71,2.13c-.2.53-.39,1-.59,1.42-.12.27-.23.54-.31.82-.06.2-.11.4-.14.61-.03.29-.1.58-.22.85-.06.16-.21.27-.38.27-.18,0-.42-.33-.71-.98-.4-.98-.74-1.97-1.02-2.99-.39-1.28-.75-2.61-1.07-4.01s-.62-2.84-.88-4.33c-.33-1.36-.66-2.66-1-3.9-.23-.92-.4-1.69-.5-2.3-.09-.46-.12-.92-.09-1.39.05-.29.15-.56.3-.81.21-.34.44-.66.68-.97.06-.17.15-.42.29-.73s.31-.7.55-1.16c.21-.44.38-.78.49-1.04.08-.16.15-.33.19-.5.02-.11.02-.22-.01-.33-.04-.09-.11-.16-.2-.21-.21-.09-.41-.19-.61-.3-.24.07-.46.18-.66.33-.24.18-.46.38-.66.6-.27.31-.51.57-.69.75-.15.15-.3.28-.47.4-.16-.1-.31-.22-.43-.37-.21-.21-.38-.33-.52-.33-.21.01-.43.05-.64.1-.22.05-.44.08-.66.09-.31,0-.63.05-.91.18-.23.1-.42.28-.54.5-.13.31-.26.63-.39.95s-.27.64-.4.95l.17,1.51c-.71,2.45-1.43,4.87-2.15,7.29-.7,2.47-1.27,4.38-1.68,5.76s-.69,2.22-.81,2.54c-.16.41-.3.76-.41,1.07s-.2.55-.25.75c-.2.79-.38,1.49-.54,2.1s-.3,1.1-.41,1.47c-.05.13-.16.42-.32.88s-.38,1.09-.66,1.91c-.26.71-.46,1.31-.59,1.77-.11.34-.2.68-.26,1.03-.05.28-.05.57,0,.85.04.2.15.28.32.25.17-.04.34-.11.49-.2.09-.05.16-.12.22-.2.29,0,.56-.11.77-.3.22-.22.38-.49.45-.8.33-.7.61-1.3.84-1.81s.43-.94.58-1.29c.14-.45.27-.92.4-1.38l.52-.77c.19-.47.36-.92.51-1.36s.31-.85.46-1.26c.5-1.21.98-2.35,1.42-3.41s.83-2.04,1.18-2.94c.24-.36.46-.74.65-1.12.23-.66.43-1.21.6-1.68.14-.4.3-.79.49-1.16l.17-.07c.18.36.34.7.46,1.02.12.32.21.65.28.99.43,1.39.82,2.58,1.16,3.6s.62,1.86.83,2.55c.04.28.08.52.12.74s.05.4.06.54c.1.57.25,1.13.46,1.67.26.74.62,1.68,1.07,2.81.34.98.76,1.92,1.28,2.81.38.62.69.93.93.93.56-.13,1.1-.3,1.63-.5.53-.15,1.05-.35,1.54-.6l.89-1.16c.46-.98.85-1.9,1.17-2.74.3-.75.54-1.51.74-2.29.53-1.26.99-2.55,1.37-3.86.43-1.45.83-3.04,1.18-4.78.33-1.46.66-2.91.99-4.35"/>
        <path id="Trazado_2986" class="st0" d="M164.68,2.94c-.65.1-1.24.43-1.66.93-.86.86-1.63,1.79-2.32,2.79-.68.93-1.28,1.84-1.84,2.72-.52.82-.99,1.67-1.4,2.55-.28.48-.54.91-.76,1.29-.19.33-.4.65-.62.95-.66,1.45-1.25,2.79-1.79,4.03s-.98,2.38-1.31,3.42l.07.44c-.25.48-.44.99-.58,1.52-.19.59-.34,1.19-.45,1.8.01.16.01.33,0,.49-.01.11-.03.21-.06.32-.02.08-.06.15-.13.19l-1.72,1.35c-.24.23-.46.47-.65.74-.15.2-.32.4-.5.57l.02.05c-.12.1-.24.2-.38.28-.12.07-.22.13-.29.17-.13.13-.25.25-.37.37s-.24.25-.37.4c-.14.11-.3.21-.46.3-.13.08-.27.12-.42.12-.44.02-.85-.21-1.05-.6-.24-.41-.31-.88-.22-1.34.09-.71.2-1.47.34-2.25.05-.39,0-.79-.14-1.16-.14-.26-.41-.41-.7-.38-.65.04-1.27.25-1.81.62-.83.54-1.6,1.18-2.27,1.9-.15.1-.29.17-.4.24s-.24.12-.35.18c-.15.1-.42.29-.8.6s-.86.7-1.45,1.18c-.44.38-.9.73-1.38,1.05-.36.24-.74.43-1.15.56l-.14-.21c.54-.64.98-1.16,1.31-1.55s.57-.64.68-.75c.98-.76,1.76-1.41,2.36-1.96.45-.39.85-.84,1.19-1.33.33-.22.65-.45.95-.7.25-.2.41-.35.5-.41.14-.16.29-.34.47-.54.49-.33.96-.69,1.41-1.08.37-.33.72-.67,1.05-1.04.5-.34.96-.65,1.39-.93.26-.16.48-.38.63-.64.16-.26.26-.55.29-.86.06-.26-.01-.52-.19-.72-.24-.19-.56-.28-.87-.25-1.01.09-1.99.43-2.83,1-1.46.89-2.85,1.9-4.14,3.01-.3.26-.62.5-.96.71-.29.18-.53.32-.71.41-.4.31-.73.58-.99.81s-.47.43-.62.58c-.23.1-.45.23-.66.37-.2.14-.37.31-.51.52-.13.2-.28.39-.45.57-.1.11-.21.22-.32.32l-2.31,1.4c-.2.26-.36.49-.5.67-.1.13-.2.25-.32.36,0,0,0,.01,0,.02-.2.15-.41.28-.64.39-.59.41-1.15.86-1.68,1.35-.32.27-.65.51-1.01.73-.23.15-.49.25-.76.27-.08,0-.16-.02-.21-.07-.05-.05-.07-.12-.05-.19.21-.93.57-1.82,1.08-2.62.51-.83.87-1.73,1.08-2.68.16-1,.14-2.02-.06-3.01-.16-.75-.56-1.43-1.14-1.94-.11-.09-.22-.18-.34-.25-.3-.35-.6-.67-.93-.98-.35-.32-.8-.49-1.27-.47-.74.09-1.45.36-2.06.79-.65.34-1.23.81-1.69,1.38l.08,1.12c-.53.88-1.16,1.7-1.89,2.42-.98.98-2.04,1.89-3.16,2.71-.29.34-.57.67-.85.99l-.02-.07c-.18.06-.36.11-.54.17-.15.04-.3.07-.45.07-.35.04-.69-.13-.88-.43-.18-.41-.22-.86-.13-1.3.02-.24.02-.48,0-.72-.03-.25-.03-.5,0-.75.05-.35.09-.7.1-1.05,0-.19,0-.37-.05-.56-.07-.21-.23-.37-.44-.45-.3-.12-.62-.17-.95-.15-.49.01-.95.21-1.3.55-.5.48-.92,1.04-1.22,1.67-.15.18-.31.36-.48.52-.17.17-.31.32-.44.44-.35.42-.7.85-1.05,1.28-.58.6-1.07,1.11-1.48,1.55s-.78.8-1.1,1.09c-.33.18-.63.33-.88.46s-.46.25-.63.34c-.16.05-.25-.14-.29-.56-.02-.65.03-1.3.14-1.94.07-.52.19-1.04.34-1.54.16-.56.37-1.17.61-1.84.23-.54.46-1.07.71-1.61s.47-1.09.66-1.64c.18-.31.35-.63.5-.96.1-.2.17-.38.25-.56.06-.13.1-.26.12-.4.05-.22.01-.44-.1-.64-.12-.16-.31-.24-.5-.22-.25.03-.49.09-.73.18-.36.12-.87.33-1.54.64-.44.48-.86.97-1.26,1.49s-.81.99-1.22,1.46c-.48.46-.94.93-1.37,1.39s-.85.94-1.25,1.4c-.49.51-.93.96-1.31,1.34-.32.32-.66.62-1.02.89,0,.09-.04.17-.09.24-.05.06-.11.12-.17.16,0,0,0,.02,0,.03-1.14.87-2.03,1.53-2.68,1.98-.33.28-.7.5-1.1.68-.14,0-.27-.07-.33-.19-.07-.18-.09-.37-.04-.56.11-.55.25-1.1.42-1.63.24-.81.58-1.87,1.01-3.17.62-1.64,1.18-3.05,1.67-4.25.49-1.2.92-2.19,1.29-2.97.12-.29.22-.56.3-.78s.13-.41.19-.58l1.64-.33c.19-.02.36-.27.51-.78.19-.71.34-1.43.42-2.16.03-.18.04-.37.02-.55,0-.12-.06-.23-.15-.31-.08-.07-.15-.16-.21-.25-.04-.06-.07-.13-.1-.2.13-.45.31-.9.54-1.32.24-.44.41-.92.51-1.41.08-.35.02-.72-.16-1.03-.2-.24-.5-.37-.81-.35-.7,0-1.47.74-2.28,2.19s-1.49,2.22-2.05,2.29l-.74-.23c-.25.05-.47.08-.66.12s-.4.08-.61.13c-.22-.06-.44-.1-.66-.12-.35-.03-.71-.05-1.06-.05-.21.05-.44.1-.67.15-.33-.07-.66-.12-1-.15-.41-.04-.82-.06-1.22-.06-.48.03-.9.34-1.07.79-.34.72-.55,1.5-.63,2.29-.02.13.01.27.1.36.11.11.25.2.4.25.12.06.24.12.37.17s.25.13.4.2c.12,0,.33,0,.61.02s.49.02.62.02h2.92c.17,0,.33-.03.49-.08.15-.04.31-.07.46-.08.08-.01.17.01.23.07.05.06.06.13.04.21-.25.43-.46.78-.66,1.05s-.36.5-.51.68c-1.17,1.71-2.43,3.35-3.78,4.91-1.14,1.32-2.39,2.55-3.73,3.68-.24.25-.45.47-.62.66s-.31.34-.42.47l-.12.18.02.02c-.11.1-.23.18-.35.26-.09.06-.18.12-.28.17-.13.13-.25.25-.37.38s-.24.25-.37.4c-.14.11-.29.21-.45.3-.13.08-.28.12-.43.12-.44.02-.85-.21-1.05-.6-.23-.4-.31-.88-.23-1.33.1-.72.21-1.47.35-2.25.06-.39,0-.79-.15-1.16-.13-.26-.41-.41-.7-.39-.65.04-1.28.26-1.81.62-.83.53-1.6,1.17-2.27,1.9-.15.1-.29.18-.4.24s-.24.12-.35.18c-.28.19-.54.39-.8.6-.38.3-.86.7-1.45,1.18-.44.38-.9.73-1.38,1.05-.36.24-.75.43-1.16.56l-.14-.21c.54-.64.98-1.16,1.31-1.54s.56-.64.68-.75c.98-.75,1.76-1.41,2.36-1.96.46-.39.86-.83,1.19-1.33.33-.21.65-.45.96-.7.25-.2.41-.35.5-.42.13-.16.29-.33.47-.54.49-.33.96-.69,1.41-1.08.37-.33.72-.67,1.05-1.04.5-.34.97-.65,1.39-.93.26-.16.47-.38.63-.64.16-.26.26-.56.29-.86.06-.26-.01-.53-.19-.73-.25-.19-.56-.28-.87-.25-1.01.09-1.99.44-2.83,1-1.46.89-2.85,1.89-4.14,3.01-.3.26-.62.5-.96.71-.29.19-.53.32-.71.42-.4.31-.73.58-.99.81-.22.18-.42.38-.62.58-.23.1-.46.23-.67.37-.2.14-.37.32-.51.52-.13.2-.28.39-.45.57-.1.11-.21.22-.32.32l-2.31,1.39c-.19.27-.36.49-.5.67-.1.13-.2.25-.32.36.11.31.19.6.27.88s.15.52.22.74c.04.11.08.21.12.29.02.08.03.16.02.25-.03.17-.07.33-.12.49-.38.32-.7.69-.95,1.11-.23.37-.38.77-.44,1.2-.14.58-.03,1.19.31,1.69.42.41,1,.61,1.59.55.19-.02.37-.07.54-.15.25-.1.54-.24.89-.41.56-.28,1.06-.56,1.51-.82.41-.24.81-.5,1.19-.79.18-.16.48-.41.9-.78s.94-.82,1.57-1.38c.45-.33.84-.61,1.18-.84s.62-.43.84-.59c.15-.14.27-.25.37-.33s.21-.17.29-.25c.1.14.16.29.19.45.02.14.02.29,0,.43-.14.92.08,1.85.6,2.62.57.62,1.39.94,2.22.86.46,0,.92-.1,1.35-.27.52-.21,1.01-.48,1.47-.81.43-.31.85-.64,1.24-1s.79-.68,1.2-1.01c.19-.23.35-.43.5-.58s.25-.27.31-.35c.93-.78,1.84-1.55,2.74-2.31.58-.45,1.08-.89,1.51-1.3.39-.37.75-.76,1.07-1.18l.25-.14c.11.06.16.13.15.21-.24.42-.48.82-.69,1.19-.2.62-.38,1.22-.55,1.83-.11.36-.21.67-.29.93-.07.21-.12.42-.15.63-.05.11-.11.22-.18.33-.23.51-.4,1.05-.52,1.6-.15.66-.29,1.44-.41,2.35-.14.63-.05,1.28.25,1.85.35.44.89.67,1.45.61.36-.01.72-.1,1.04-.27.45-.23.86-.52,1.22-.88.32-.29.64-.6.95-.91s.63-.62.95-.93c.31-.28.61-.53.87-.74s.48-.4.66-.57c.43-.26.8-.52,1.1-.75s.56-.44.74-.6v-.02c.21-.22.38-.42.51-.58.11-.13.2-.26.29-.4l1.52-1.37.15-.07c.11,0,.17.12.19.35.03.34.02.69-.01,1.03-.06.27-.09.54-.09.81-.01.45,0,1.08.03,1.9-.05.68.16,1.36.58,1.9.42.45,1.03.69,1.64.64.56-.02,1.12-.17,1.62-.43.68-.36,1.3-.83,1.82-1.39.5-.49,1.01-.97,1.49-1.47s.97-.99,1.47-1.51c.23-.22.45-.43.66-.65s.39-.4.56-.56c.12.18.22.36.31.56.07.18.11.37.12.57.07.68.37,1.31.86,1.79.51.43,1.17.64,1.83.6.49-.05.96-.2,1.4-.43.64-.28,1.45-.7,2.44-1.25,0,.03.02.06.02.09.14-.13.26-.27.36-.42.08-.13.14-.22.18-.29.48-.29.93-.61,1.37-.96.29-.23.55-.5.79-.79.35-.2.68-.45.98-.72.4-.36.87-.83,1.41-1.38.43-.46.91-.89,1.41-1.28.39-.3.8-.57,1.23-.8.46.03.87.32,1.05.75.22.61.26,1.26.14,1.89-.12.77-.31,1.54-.58,2.27-.33.93-.72,1.84-1.15,2.72-.11.22-.23.44-.36.65-.14.21-.27.41-.39.62-.15.24-.28.48-.39.74-.09.19-.16.39-.19.6-.09.36.05.74.36.94.44.23.94.34,1.43.3.4-.11.79-.28,1.14-.5,1.27-.71,2.38-1.35,3.3-1.9s1.68-1.03,2.26-1.42c.28-.21.52-.41.72-.58.16-.14.31-.26.45-.37-.03.15-.06.3-.11.44-.37.32-.7.69-.96,1.11-.23.37-.37.77-.43,1.2-.14.58-.03,1.19.3,1.69.42.41,1,.61,1.58.55.19-.02.37-.07.54-.15.24-.1.54-.24.89-.41.56-.28,1.06-.56,1.51-.82.42-.24.82-.5,1.2-.79.18-.16.48-.42.9-.78s.94-.82,1.57-1.38c.44-.33.84-.6,1.18-.83s.62-.43.84-.59c.14-.14.27-.25.37-.34s.21-.17.29-.25c.09.14.16.29.19.45.02.14.02.29,0,.43-.13.92.08,1.85.6,2.62.57.62,1.39.94,2.22.86.46,0,.92-.1,1.34-.27.52-.21,1.01-.48,1.47-.81.42-.31.84-.65,1.24-1s.79-.69,1.2-1.01c-.02-.17-.06-.34-.1-.5l.14.44c.44-.36.81-.68,1.13-.96.31-.28.57-.53.81-.73.1.11.18.23.23.37.05.12.07.25.09.37-.03,1.1.23,2.19.77,3.16.44.68,1.21,1.07,2.02,1.04.27,0,.65.03,1.16.09.37.05.75.08,1.13.08.52,0,1.04-.12,1.52-.32.57-.23,1.1-.54,1.59-.92.47-.36.93-.72,1.39-1.1.45-.37.91-.74,1.36-1.1l-.62-2.15c-.4.31-.76.58-1.07.81s-.58.4-.8.53c-.72.23-1.27.41-1.68.51-.24.08-.48.13-.72.17-.99.09-1.96-.35-2.54-1.16-.54-1.05-.7-2.26-.44-3.42.62-.78,1.23-1.59,1.82-2.46.43-.52.81-.99,1.14-1.38s.6-.72.81-.98c.18-.29.35-.56.48-.79s.27-.43.39-.59c.27-.34.48-.62.67-.83.16-.19.32-.4.46-.61.23-.36.42-.67.56-.93.13-.22.24-.46.33-.7.2-.28.4-.53.58-.76s.32-.42.44-.58c.31-.61.6-1.17.83-1.68s.44-.97.6-1.36c.26-.44.48-.81.64-1.12s.3-.58.4-.79l.02-.33c.07-.12.13-.24.17-.38.07-.47.22-.92.45-1.33.19-.35.32-.73.4-1.12.07-.4.16-.79.29-1.18.13-.37.23-.75.3-1.13.18-.66.09-1.37-.24-1.97-.51-.41-1.17-.6-1.82-.52M162.25,11.62c-.11.3-.19.61-.25.93-.34.94-.76,1.84-1.25,2.71-.44.92-.96,1.81-1.55,2.64-.37.51-.7.96-.98,1.33-.24.31-.47.64-.67.98-.26.41-.55.8-.86,1.17-.14.2-.35.34-.58.42l-.11-.19c.08-.4.21-.79.39-1.16.23-.54.56-1.25.96-2.13.34-.58.67-1.1.98-1.58.25-.41.45-.73.59-.99.1-.17.18-.36.23-.55.14-.79.46-1.53.95-2.17.67-.88,1.44-1.68,2.3-2.38l.15.09c-.1.3-.2.59-.31.89"/>
        <path id="Trazado_2987" class="st0" d="M225.98,30.2c-.1-.36-.23-.77-.37-1.22-.18.13-.37.25-.56.34-.18.09-.32.15-.4.2-.45.23-.93.42-1.41.56-.55.17-1.12.27-1.7.3-.32-.06-.63-.15-.94-.25-.2-.06-.39-.15-.55-.28-.2-.13-.35-.33-.42-.56-.09-.28-.11-.58-.06-.87.02-.19.08-.36.18-.52.09-.15.21-.29.34-.41,1.24-1.05,2.42-2.18,3.54-3.36.74-.76,1.36-1.63,1.82-2.59l.31-.75c.16-.37.28-.65.36-.81.05-.12.08-.18.1-.17-.02-.36-.02-.68-.02-.98-.04-.31-.09-.61-.17-.91-.05-.2-.13-.39-.25-.57-.13-.19-.32-.33-.54-.39-.3-.09-.62-.13-.93-.12-.26,0-.52.02-.78.07-.22.04-.44.09-.65.16-.22.16-.45.3-.66.42-.21.12-.42.25-.61.4-.42.44-.83.87-1.25,1.29s-.81.83-1.18,1.18c-.48.65-.87,1.22-1.18,1.73s-.56.94-.74,1.28-.33.66-.47.96-.25.55-.33.76c-.06.31-.13.62-.21.93s-.18.62-.27.93c-.45.31-.87.66-1.26,1.04-.31.31-.6.64-.86.99,0,0,0,.01,0,.02-.5.52-.97,1.08-1.39,1.67-.42.57-.79,1.18-1.1,1.82-.06.09-.22.49-.51,1.18s-.7,1.66-1.26,2.91c-.1.29-.24.58-.41.84-.15.22-.27.4-.35.54v.46c-.98,1.92-1.77,3.36-2.36,4.31s-.98,1.44-1.2,1.44c-.1,0-.15-.13-.17-.39-.02-.37-.02-.74,0-1.11,0-.4.03-.79.07-1.17.13-.98.34-2.14.62-3.47s.66-2.85,1.11-4.54c.46-1.8.91-3.36,1.34-4.69s.85-2.42,1.25-3.3c.22-.37.42-.69.58-.94.12-.2.27-.38.44-.53.11-.19.21-.39.3-.6.08-.18.15-.32.21-.43.37-.6.69-1.13.96-1.57s.48-.8.68-1.08c.95-2.04,1.75-3.83,2.41-5.38.66-1.55,1.18-2.84,1.58-3.89.53-2.11.81-3.22.83-3.34.08-.55.11-.99.14-1.33.02-.24.03-.48.02-.73,0-.31-.14-.6-.39-.78-.28-.18-.61-.26-.95-.24-.63.04-1.21.32-1.65.78-.69.68-1.27,1.47-1.72,2.33-1.59,2.94-2.95,5.69-4.08,8.24-1.04,2.32-1.91,4.72-2.6,7.17-.14.46-.31.92-.5,1.36-.19.44-.42.86-.69,1.26-.14.23-.37.53-.66.93s-.68.87-1.13,1.41c-.16.19-.31.35-.42.48-.11.11-.21.23-.3.36,0,0,0,0,0,.01-.27.19-.54.4-.82.61s-.56.41-.83.61c-.3.22-.63.4-.98.52-.28.1-.58.15-.88.15-.2.01-.4-.02-.58-.1-.14-.07-.25-.19-.31-.34-.12-.35-.19-.72-.21-1.08-.07-.63-.14-1.1-.2-1.41,0-.5-.01-.99-.04-1.48s-.06-.97-.11-1.46c-.01-.47-.22-.92-.58-1.23-.38-.28-.84-.43-1.32-.4-.22,0-.44.06-.64.16-.24.13-.45.32-.61.54-.76.83-1.59,1.58-2.49,2.25-.91.67-1.75,1.43-2.53,2.25l-.1.24-.1.09s-.02-.06-.03-.08c-.14.15-.29.29-.45.4-.19.14-.38.28-.58.39-.15.22-.32.42-.51.6-.13.05-.26.1-.38.14-.12.05-.25.08-.38.1-1.07.4-2.16.72-3.27.96-.99.22-2,.32-3.02.33-.23,0-.36-.14-.44-.42-.07-.39-.07-.8,0-1.19.14-.85.34-1.69.6-2.51.34-1.12.79-2.52,1.38-4.22.14-.42.25-.78.32-1.09s.16-.59.22-.82c.03-.07.14-.29.28-.65s.35-.86.62-1.53c.21-.48.39-.89.52-1.24.1-.28.18-.56.23-.85.16-.79.43-1.55.81-2.26.4-.78.68-1.61.83-2.46.06-.35.15-.7.25-1.04.13-.49.31-1.1.51-1.83.2-.26.35-.49.47-.68.08-.27.16-.55.23-.86s.14-.65.21-1.03c.05-.14.12-.33.21-.56s.18-.52.29-.84c.12-.27.22-.55.29-.83.06-.24.09-.45.11-.64.1-.44.06-.9-.11-1.32-.18-.3-.52-.47-.86-.43-.15,0-.31.03-.46.08-.27.06-.53.15-.78.25-.33.14-.64.32-.93.53-.25.18-.46.41-.63.66-.16.32-.32.61-.46.88s-.32.56-.49.88c-.37.64-.69,1.21-.96,1.71-.23.41-.43.83-.62,1.26-.15.5-.31,1.01-.5,1.54s-.37,1.05-.55,1.57c-.17.44-.33.88-.51,1.33s-.34.92-.54,1.37c-.21.5-.39,1.02-.54,1.54-.11.41-.2.83-.26,1.26-.05.24.06.48.26.6.21.14.31.4.25.64-.21,1.1-.51,2.18-.89,3.23-.35.97-.64,1.97-.85,2.98-.02.16-.03.32-.02.48.01.15,0,.3-.02.45-.24,1.03-.57,2.03-.99,2.99-.46,1.05-.8,2.15-1.02,3.28-.11.74-.17,1.49-.17,2.24.02.51.11.82.28.94.14.08.32.19.57.35.11.08.23.16.35.25s.25.19.37.28c.11.07.24.12.38.14.19.03.38.04.58.03.28,0,.6,0,.93-.03.35-.03.7-.09,1.04-.18.5-.06,1.01-.14,1.53-.2.53-.07,1.04-.22,1.52-.44.43-.2.91-.4,1.44-.61s1.09-.43,1.68-.64c.38-.13.75-.3,1.1-.51.31-.19.58-.44.81-.72.25-.33.48-.65.7-.96.19-.28.39-.55.61-.81,0,.02.01.05.02.07.55-.54,1.13-1.05,1.74-1.51.3-.26.68-.44,1.07-.5.09,0,.2.09.31.27.16.25.29.52.39.81.12.23.24.43.34.61.08.14.16.29.22.44.1.98.45,1.93,1.03,2.73.83.43,1.76.6,2.69.49.38-.04.74-.15,1.07-.33.62-.31,1.21-.66,1.78-1.04.64-.42,1.18-.79,1.63-1.11.38-.26.75-.54,1.1-.84l.52.52c-.31,1.06-.58,2-.81,2.83-.23.83-.41,1.51-.52,2.05.03.48.06.96.09,1.43-.05.28-.12.55-.22.81-.09.26-.16.53-.21.8l-.48,3.55c-.05.37-.08.74-.08,1.11,0,.33.03.65.08.97,0,.49,0,.97-.02,1.46s-.02.99,0,1.48c.03.51.27.99.65,1.33.45.32.99.48,1.54.45.23,0,.45-.06.65-.18.23-.13.45-.29.65-.48.15-.18.31-.38.48-.58.17-.19.33-.4.47-.61,1.05-1.37,1.96-2.85,2.72-4.41,1.01-1.97,2.11-4.44,3.29-7.42.17-.42.33-.86.5-1.32s.35-.91.54-1.34c.19-.49.42-.97.69-1.42.22-.38.48-.73.78-1.06,0,0,0-.01,0-.02.17-.19.36-.36.56-.51.13-.1.28-.16.45-.18.17,0,.32.1.39.25.13.24.23.49.29.75.11.43.23.78.34,1.08.08.25.21.49.38.69.26.34.61.59,1.01.75.48.18.98.26,1.49.25.38,0,.77-.03,1.15-.1.32-.07.62-.18.9-.34.74-.04,1.46-.27,2.09-.66.95-.57,1.85-1.24,2.68-1.98-.06-.31-.13-.62-.23-.92M219.64,24.71c.22-.73.61-1.41,1.12-1.97.7-.89,1.22-1.34,1.56-1.34.1,0,.19.04.23.13.05.11.06.23.03.35-.03.23-.11.45-.23.65-.14.24-.3.46-.5.65-.18.17-.36.34-.55.52s-.39.35-.57.5c-.12.16-.24.33-.37.5-.1.16-.27.26-.46.27-.13,0-.21-.01-.24-.06-.04-.06-.05-.13-.03-.2M212.24,16.49c.11-.25.25-.56.42-.9.21-.4.38-.74.51-1,.1-.2.18-.41.25-.63.11-.21.19-.38.24-.5s.13-.18.22-.18c.11,0,.19.04.22.12.04.13.05.27.02.4-.04.2-.1.4-.19.58-.11.23-.27.51-.46.84-.21.31-.4.63-.57.96-.14.24-.23.5-.29.78l-.4.35-.15-.18c.03-.22.1-.43.19-.63"/>
        <path id="Trazado_2988" class="st0" d="M196.47,16.83c.23,0,.47.02.7.03s.49.06.75.09c.18,0,.36-.05.52-.13.34-.15.66-.32.97-.52.35-.19.68-.43.97-.7.28-.26.51-.57.7-.9.08-.15.21-.4.37-.77s.36-.82.6-1.38c.11-.29.23-.66.38-1.1.05-.24-.01-.5-.18-.68-.23-.18-.53-.26-.82-.23-.29,0-.59.03-.87.1-.23.06-.44.15-.64.27-.42.43-.78.79-1.09,1.12-.66.19-1.25.59-1.66,1.14-.53.47-.91,1.08-1.09,1.76-.07.42-.07.85,0,1.26.03.26.18.48.39.63"/>
        <g id="Grupo_3473">
          <path id="Trazado_2989" class="st0" d="M229.89,14.13c.03,1-.77,1.84-1.77,1.87s-1.84-.77-1.87-1.77c-.03-1,.77-1.84,1.77-1.87.02,0,.04,0,.07,0,.99,0,1.79.79,1.8,1.77h0ZM226.7,14.13c-.02.76.59,1.4,1.35,1.41.01,0,.02,0,.03,0,.75,0,1.35-.61,1.35-1.36,0-.01,0-.03,0-.04.04-.75-.54-1.4-1.3-1.44-.75-.04-1.4.54-1.44,1.3,0,.04,0,.09,0,.13h0ZM227.79,15.06h-.41v-1.77c.22-.03.45-.05.68-.06.21-.02.42.03.6.14.12.09.19.23.18.38-.01.21-.16.38-.36.42v.02c.17.06.26.19.31.43.02.15.07.3.13.43h-.43c-.07-.13-.12-.28-.14-.43-.03-.18-.14-.27-.36-.27h-.2v.71h0ZM227.8,14.06h.2c.23,0,.41-.07.41-.26,0-.16-.12-.27-.38-.27-.08,0-.15,0-.23.02v.51Z"/>
        </g>
      </g>
      <path id="Trazado_2990" class="st0" d="M225.45,19.98v.05s0-.03,0-.05"/>
      <g id="Grupo_3475">
        <path id="Trazado_2991" class="st0" d="M20.51,7.74c2.15.17,4.04-1.44,4.21-3.59,0-.02,0-.03,0-.05.31-1.91-.98-3.71-2.88-4.02-.12-.02-.25-.03-.37-.04-1.98-.27-3.81,1.11-4.08,3.09-.01.1-.02.19-.03.29-.38,1.99.92,3.9,2.9,4.29.08.02.17.03.25.04"/>
        <path id="Trazado_2992" class="st0" d="M29.85,11.72c1.84.15,3.45-1.23,3.6-3.07,0-.01,0-.03,0-.04.27-1.63-.83-3.17-2.46-3.44-.11-.02-.22-.03-.33-.04-1.83-.12-3.41,1.27-3.54,3.1-.11,1.69,1.06,3.19,2.72,3.49"/>
        <path id="Trazado_2993" class="st0" d="M11.1,9.58c2.11-.44,3.47-2.51,3.03-4.63,0-.02,0-.03-.01-.05-.23-1.92-1.98-3.29-3.9-3.05-.13.02-.25.04-.38.07-1.98.3-3.34,2.14-3.04,4.12.01.09.03.19.05.28.19,2.01,1.98,3.49,4,3.3.08,0,.17-.02.25-.03"/>
        <path id="Trazado_2994" class="st0" d="M5.85,11.31c-1.52-1.19-3.72-.91-4.91.61-.08.1-.15.2-.22.31-1.19,1.6-.85,3.86.75,5.05.08.06.16.12.25.17,1.56,1.29,3.87,1.07,5.15-.49.06-.07.11-.14.16-.21,1.18-1.81.66-4.24-1.15-5.41-.01,0-.02-.02-.04-.02"/>
        <path id="Trazado_2995" class="st0" d="M27.7,33.51h0c.45,0,.87-.19,1.19-.51-.41.27-.92.37-1.41.28h0c-1.12-.17-3.12-2.17-3.53-2.41s-1.22-.26-1.39.13-.87.29-.87.29c0,0-.76-.68.65-1.49.87-.62,2.02-.63,2.9-.02,0,0,1,.64,1.28.27.23-.31.47-.59.74-.86.11-.11.12-.29,0-.4-.01-.02-.03-.03-.05-.04-.4-.21-.82-.37-1.26-.48-.29,0-.64-.49-.75-.83-.19-.15-.2-.44-.17-.75-.21-.36-.1-.52.16-.66.24-.1.43-.29.54-.53.49-.98.67-1.22,1.62-1.38.15-.27.36-.36.36-.66,0-.35.13-.82.35-.84.56.32.98.85,1.16,1.47.71.55,1.19,1.33,1.36,2.21.13.59.29,1.17.48,1.74.03.07.06.15.09.23.46.86,1.19,1.55,2.08,1.97h0c.49-1.65.75-3.36.77-5.09,0,0,0,.01-.02.02.03-1.81-.21-3.62-.72-5.37h0c-.79-3.03-2.66-5.65-5.27-7.38-6.62-4.12-14.25-.71-18.19,5.64-.73,1.16-1.3,2.41-1.71,3.72h0c.83-.5,3.65-2.37,4.39-2.83s1.42-.88,1.57-.98c.6-.61,1.27-1.15,1.99-1.61.94-.53,2.09-.54,3.04-.02.97.4,1.8,1.09,2.38,1.97.27.21.48.48.64.78.11.27-.29,1.04.58,1.8.72.64,2.21,1.59,2.34,2.11.1.37-.8.83-1.2,1.2-.56.59-1.33.93-2.14.95-.81-.16-1.57-.53-2.18-1.09-.43-.33-.92-.57-1.44-.72.04-.96.74-1.04.93-2.3.11-.84-.26-1.77-.16-2.5.07-.35.09-.71.06-1.07-.2.28-.33.61-.38.95-.08.69.24,1.85.1,2.64-.2,1.17-.66,1.13-.78,2.17-.03.31-.15.61-.35.86-.26.15-.75.38-1.09.1-.68-.55-1.17-1.29-1.41-2.13-.52-.97-.72-2.08-.59-3.17-.31,1.08-.21,2.24.29,3.25.15.64.51,1.21,1,1.64-.36.15-.7.32-1.04.51-.47.55-.7,1.26-.64,1.98.06.62.08,1.25.04,1.87-.11.76-.08,1.53-.25,2.28-.14.66-.36,1.29-.67,1.88-.37.66-.64,1.38-.79,2.13.21.16.43.33.66.49-.02,0-.03,0-.05,0,.25.17.5.34.77.5,5.81,3.61,12.19,4.5,16.33.4-.96-.54-1.78-1.3-2.38-2.23"/>
        <path id="Trazado_2996" class="st0" d="M12.37,34.35h0"/>
        <path id="Trazado_2997" class="st0" d="M30.08,35.73h0Z"/>
      </g>
      <path id="Trazado_2998" class="st0" d="M226.2,19.79v.05s0-.04,0-.05"/>
      <path id="Trazado_2999" class="st0" d="M225.77,20.65v.05s0-.03,0-.05"/>
    </g>
  </g>
</svg>