<?xml version="1.0" encoding="UTF-8"?>
<svg id="Capa_1" data-name="Capa 1" xmlns="http://www.w3.org/2000/svg" viewBox="0 0 90.71 87.18">
  <defs>
    <style>
      .cls-1 {
        fill: #d33;
      }
    </style>
  </defs>
  <path class="cls-1" d="M86.73,15.99c-.63-.15-5.47-1.71-6.24-1.87-.78-.16-1.4-3.26-2.34-4.05-.94-.77-2.8-2.02-3.9-2.17-1.08-.16-.31-2.19-.31-2.82s-.15-.78-.94-.78-.47-1.72-.78-2.19c-.31-.46-.93,2.96-1.24,3.59-.32.63-.94,1.87-1.72,3.42-.78,1.56.68.63-1.7,2.51-3.6,2.8-6.08,8.72-7.33,10.9-1.25,2.19-3.43,3.12-4.67,4.22-1.25,1.09-3.75,2.8-5.78,3.43-2.03.61-18.4,1.56-19.64,1.56s-3.11-.32-9.98,4.2c-6.85,4.52-5.14,10.46-5.3,15.12-.16,4.68-7.95,13.89-8.41,14.66-.48.79.78,1.71.62,3.12-.16,1.41-.94,8.58-1.1,9.81-.15,1.25.32,1.56,1.25,2.18.94.62,1.09-.14,1.09-.14,0,0,1.4,1.08,2.8.77,1.4-.31.48-.62.48-.62l.62-.77s0-.63-.79-1.41c-.77-.78-2.17-.78-2.17-.78,0,0,.78-6.84,1.25-8.72.46-1.87,2.01-3.75,4.98-5.47,2.96-1.71,9.36-10.13,9.36-10.13,0,0,.78.17,1.09,3.29.32,3.11-6.7,8.71-7.33,9.49-.62.78,0,1.57,1.39,3.6,1.41,2.01,4.22,6.85,4.84,7.94.62,1.09,1.87,1.72,3.59,1.72s1.71-.48,1.71-.48c0,0,1.41,0,2.19-.61.78-.63-1.09-1.73-1.87-2.03-.78-.32-3.75-.32-3.75-.32l-.31-.47c-.31-.46-2.34-5.76-2.34-7.01s5.31-6.24,7.8-9.52c2.49-3.27,2.34-6.54,2.49-8.1.16-1.55,1.09-1.4,2.65-1.09,1.56.3,10.91,2.02,13.87,3.12,2.97,1.09,7.17-.47,7.17-.47,0,0,.16,1.25.31,2.34.16,1.08,1.57,6.23,2.03,9.04.47,2.8.16,8.11.16,9.35s.78,2.34,1.25,3.42c.46,1.09-.47,2.51-.47,4.68s.63,2.02,1.87,2.5c1.25.46,2.5,0,2.5,0l3.43.15.15-2.34.62-.47c.62-.47-.15-1.09-.77-1.56-.63-.46-2.5-1.55-2.97-2.02-.46-.47-.31-1.56-.31-2.96s-.78-3.13.31-5.77c1.09-2.66.78-2.34.78-5.92s.94-9.35,1.26-12.01c.3-2.64,1.08-4.35,2.97-7.63,1.87-3.28.45-5,.15-6.24-.31-1.25-.62-5.14-.62-6.23s1.55-4.37,1.55-4.37c.16-.64,1.25-2.81,2.49-3.44.98-.48,1.56-.77,2.49.33.94,1.08,3.44,1.87,5.62,1.24,2.18-.62,2.96-3.28,3.43-4.37.47-1.09.94-2.48,1.25-2.97.31-.46-.15-1.24-.78-1.39Z"/>
</svg>