<?xml version="1.0" encoding="UTF-8"?>
<svg id="Capa_1" data-name="Capa 1" xmlns="http://www.w3.org/2000/svg" viewBox="0 0 77.82 58.59">
  <defs>
    <style>
      .cls-1 {
        fill: #d33;
      }
    </style>
  </defs>
  <path class="cls-1" d="M20.47,55.39c1.13-.09.47-.85.1-1.5-.37-.65-.94-.47-1.22-.85-.28-.37-.1-1.97.28-3.65.13-.61,1.16-1.33,2.51-2.09-.05.9-.2,3.95-.2,4.49,0,.66,1.4,2.82,1.73,3.14.32.32,2.91.43,3.44.1.54-.32.65-.97,0-1.29-.64-.33-1.17-.64-1.72-1.95-.54-1.3-1.08-2.48-.32-3.78.32-.53.96-1.31,1.63-2.08.06.12.19-.07.36-.39.35-.4.7-.79.98-1.11.06.36.18.51.43.33.16-.12.29-.45.44-.81.02.02.05.05.07.06.32.33.54-.95.86-1.59.05-.1.08-.25.11-.42.1-.02.22-.01.34.08.96.64.22-.73.53-1.48.32-.75.96.42,1.59,1.15.63.75-.21-.95,0-2,.22-1.05.53.21,1.7,1.39,1.17,1.17.74.1,1.17-.12.43-.22.85.42,1.8,1.59.94,1.16.85.21,1.59-.64.75-.84,1.8.64,2.65,1.59.85.95.53.1.85-.63.32-.74,1.38.2,1.7.84.32.64.41.22.41-.73s2.65-.64,3.83.63c1.17,1.27.2-.32.1-2-.02-.34.01-.55.09-.67.16.12.28.23.42.36.66.73.63.52.46-.12.33.27.68.62.95.85.74.64.53-.33.64-.85.11-.53,1.27.85,1.8,1.7.53.84.53-.74.53-1.27s1.49,5.09,1.69,5.93c.2.76.31-1.01.33-1.41.24.89.47,1.71.7,2.17.66,1.22-.01,3.64.08,4.86.09,1.22.39,1.87.56,2.53.2.65,1.3.8,2.52.71,1.22-.09,1.6-.14,2.82-.23,1.23-.1.96-.65.66-1.41-.31-.76-.74-.84-1.41-.94-.66-.11-.66-.74-.66-1.58,0-.76-.4-6.26-.3-8.18.07.22.1.47.13.76.11,1.44.45,3.21.45,2.56s.66-3.9.88-4.32v-1.89c0-.45-.12-2.33.22-1.11.33,1.22.33,2.55.44,1.89.11-.66-.11-3.65.11-3.55.22.12.88,1.89.88,1.89,0,0-.23-3.44-.23-4.21s.67.55.67,1.54-.67,5.55.11,1.45c.78-4.11.56-4.55.44-5.43-.11-.89,0-2.89.34-1.35.33,1.56.33,5,.55,3,.23-2,.23-3.88.23-4.65s-.55-4.54-.23-4.22c.33.33.77.66.77.33s-.88-2.11-.99-2.66c-.03-.14-.06-.36-.1-.6.14-.87.01.06.8.22.82.15-.16-.98-.33-2.11-.16-1.14,0,0,.97,0s0,0-.16-.81c-.17-.8.33-1.47,1.29-.8.98.64,0,0-.16-.66-.1-.42-.65-1.64-.99-2.41.27-.45.96-.69,1.22-.94.27-.29,3.86.14,4.71-.15.85-.28.75-.39,1.22-1.03.47-.66.56-.47,1.03-.66.47-.18.47-.95,0-1.31-.48-.39-5.56-3.49-5.84-3.68-.27-.18-.37-1.04-.66-1.59-.27-.56-1.03-.95-1.03-.95-.46,0-2.06-.65-1.87-1.11.19-.47,1.02-1.94,1.68-2.33.65-.38.24-1.05-.24-1.14-.46-.09-1.19,1.14-1.95,1.61-.75.46-1.72,1.58-2.22,1.95-.49.38-.38.13-.38-.62s-.41-2.69-.32-2.97c.1-.28-.46-.46-.94.1-.47.56-1.62,4.37-1.62,4.37,0,0-.2.3-1.17,1.06,0-.04-.02-.07-.03-.1l-1.83.69s-2.07,1.15-1.73,1.15.58-.58.35,0c-.23.56-1.38,1.49-1.38,1.49,0,0,0,.46-.34.81-.35.34-2.76,1.84-2.42,1.84s.8-.12.46.46c-.34.57-1.03,1.27-1.03,1.27,0,0,.57-.24,0,.45-.58.69-1.15.92-1.15.92-.31.29-.56.46-.79.58-.39.08-.84.15-1.34.23h-.51c-.08,0-.19,0-.33.03-3.33.08-13.89-.32-18.35-.14-4.96.19-7.98,3.48-9.76,5.26-1.78,1.78-1.88,7.31-2.16,10.97-.28,3.65-6.74,7.96-8.06,9.74-1.3,1.77-5.72,6.55-5.34,7.03.68.85,4.21.84,6.17-.19,1.96-1.03,2.82-2.63,4.5-5.35,1.69-2.72,3.56-5.71,4.03-6.46.47-.75,1.03-2.25,1.03-2.25l.19,1.4c.19,1.42-1.88,5.91-2.53,6.38-.66.47-.37,3.65,0,5.99.38,2.36-.19,3.57-.08,4.31.08.76,1.21,1.24,2.34,1.13,1.12-.08,1.59.29,2.71.2Z"/>
</svg>