<?xml version="1.0" encoding="UTF-8"?>
<svg id="Capa_1" data-name="Capa 1" xmlns="http://www.w3.org/2000/svg" viewBox="0 0 33.18 30.53">
  <defs>
    <style>
      .cls-1 {
        fill: #d33;
      }
    </style>
  </defs>
  <path class="cls-1" d="M4.85,15.83c.51.3.61.59,1.69.57,1.05-.02,2.36.16,2.48.18-.01.15-.01.55.01,1.58.03,2.22,1.03,2.32.68,3.64-.36,1.34-.24,1.46-.52,1.5-.29.04-.52.53-.16.53s.07.84.07.84c0,0-.48.52-.33.56.17.04.73.56,1.09,1.05.36.48,2.26.32,2.53.32.07,0,.12-.03.16-.08.27.18.57.28.71.28.27,0,1.74,0,2.01-.22.28-.21,0,0-.06-.38-.05-.37-.75-.75-1.4-1.73-.66-.97-.28-1.02-.22-1.67.02-.24.09-.36.16-.44h.71c1.17,0,4.09-.24,5.59.12,1.49.37.71,1.55.71,1.82,0,.29-.07,2.26.25,2.38.31.12,1.09.41,1.93.32.84-.08.94-.35.94-.63.22.05.38.32.71.32s1.13-.11,1.35-.38c.22-.27.27-.11.05-.65-.21-.54-.21-.59-.91-2.12-.25-.5-.33-.84-.35-1.08.84-.77,1.78-1.63,1.78-1.63,0,0,.23.29.2.41-.05.12.2-.49.16-.89-.03-.41.44-.08.52.09.08.16.13-.04.2-.89.09-.85.73-2.78-.04-4.15-.21-.37-.36-.54-.47-.59.1-.11.2-.22.27-.25.03,0,.05.01.06.03-.02-.11-.06-.29-.11-.61-.22-1.24-.11-1.09.16-.93.27.16.26.28.21-.15-.06-.43-.06-.54.11-.54.16,0,.81-.16,1.24-.54.43-.38.27-1.09.33-1.46.05-.38,0-.43-.44-.6-.43-.16-1.09-.54-1.09-.54,0,0-.37-1.13-.48-1.78-.11-.64-.54-2.27-.87-2.86-.32-.6-.27,0-.59.7-.33.71-.18.98-.18.98,0,0,0-.11-.8.05-.61.12-.69.15-.7.16-.02,0-.49-.43-.86-.59-.39-.16-1.19-1.03-1.41-.92-.21.1-.1,2.11-.1,2.11,0,0-.23.22-.6.71-.38.48-.47-.37-1.01,1.32-.55,1.67-.07,3.65-1.65,5-.46.4.14.82-1.89.41-1.21-.25-2.98-1.14-4.93-.32-.84.35-.92.37-.92.37,0,0-2.18-.45-3.48-1.42-1.29-.96-3.52-2.5-3.87-2.67-.36-.17-.9.4-1.09,1.59-.44,2.74,1.93,3.5,2.45,3.8Z"/>
</svg>