<?xml version="1.0" encoding="UTF-8"?>
<svg id="Capa_1" data-name="Capa 1" xmlns="http://www.w3.org/2000/svg" viewBox="0 0 60.88 38.82">
  <defs>
    <style>
      .cls-1 {
        fill: #d33;
      }
    </style>
  </defs>
  <path class="cls-1" d="M57.38,5.39c-.6,0-5.04.29-6.03,0,0,0-.89-.5-1.58-.6-.69-.1-3.66.6-4.45,1.49-.79.89-1.29,1.48-1.29,2.27s.3,1.39.21,1.78c-.1.4-1.19,5.74-1.88,6.23-.69.5-3.23,2.27-6.23,2.67-2.27.3-15.38-.7-17.25-.21-.74.19-1.35.32-2.02.85-.09.07-1.93-.36-4.84-2-6.9-3.9-8.29-7.39-8.38-7.31-.14.12-.13,3.21,5.67,7.81,2.31,1.83,5.92,3.1,5.84,3.2-.42.5-.29.68-.29,1.03,0,.99.2,4.26.2,4.26,0,0-1.48.69-1.09,1.88.4,1.18.6,1.08.79,2.07.19.99.6,2.76.79,3.26.2.5,2.47.59,2.87.59s.59.1.39-.59c-.19-.7,0-.5-.19-1.18-.2-.69-1.2-.89-.99-1.58.19-.69.51-1.57,1.9-2.16,1.39-.59,2.57-1.58,2.57-1.58,0,0,4.12.19,5.58.74,3.75,1.41,9.23,1.42,10.81,1.42s3.86-.1,3.86-.1c0,0,.29.69.5,1.98.19,1.29.48,2.18.69,2.77.19.6.78.89,1.77.99.99.09,2.38-.2,2.38-.2,0,0,0-.69-.5-1.09-.49-.39,1.29-.7.99-1.18-.29-.5-1.47-.89-1.77-1.19-.3-.3-.59-.99.4-1.88.99-.89,5.44-4.65,5.24-6.63-.19-1.98-.39-6.43-.29-7.91.1-1.48.79-2.76.88-3.36.1-.59.79-1.48,1.58-1.98.79-.49,3.32-1.36,3.46-2.37.1-.69.3-2.17-.29-2.17Z"/>
</svg>