<?xml version="1.0" encoding="UTF-8"?>
<svg id="Capa_1" data-name="Capa 1" xmlns="http://www.w3.org/2000/svg" viewBox="0 0 65.29 46.24">
  <defs>
    <style>
      .cls-1 {
        fill: #d33;
      }
    </style>
  </defs>
  <path class="cls-1" d="M16.41,14.64c-3.82.29-5.69,2.4-6.58,4.46v-.04s-2.87.65-2.87,1.75-1.35.07,0,1.11c.94.72,1.7.87,2.08.89v.16c.07,1.39.37,4.5.45,5.24.07.73-1.06,4.12-2.31,5.38-1.26,1.26-1.54,3.39-1.4,3.97.14.6.21,2.07,0,2.88-.23.81.17,2.2,1.72,2.34,1.29.13,3.16.06,3.45-.75.3-.81,0-1.53-.52-1.62-1.85-.26-.73-1.74-.58-2.56.14-.78,1.32-1.64,2.6-2.03,0,.12,0,.29-.02.54-.11.88,1.4,3.28,1.79,4.3.23.58.39,1.13,1.92,1.19,2.93.07,3.72-1.41,2.18-2.42-1.28-.84-1.13.13-2.05-.92-.44-.5-.37-2.74-.25-3.62.06-.54.22-1.13.19-1.55.52-.75.72-.33,1.01-.13.29.21.22-.08.59-1.18.37-1.11.73-.75,1.1-.52.36.22.58.14.74-.59.15-.74,2.29-1.84,4.42-2,2.14-.15,7.23,2.07,8.71,2.82,1.47.73,1.84,1.97,1.61,2.64-.22.67,0,1.92.08,2.58.07.66-.08,1.62-.44,2.07-.36.44.51.44.88.65.37.22.37.45.66,1.7.29,1.26,1.7,1.26,3.69,1.26s2.06,0,2.22-.82c.14-.83-.16-1.34-.74-1.63-.59-.29-.81-.73-1.11-1.33-.3-.58,0-3.68.29-5.17.29-1.45,2.43-3.23,3.91-4.41,1.47-1.18,2.87-4.13,2.87-5.31s0-.75,1.4-.75,1.33.75,3.03.38c1.68-.38,2.94-2.58,2.87-3.98-.08-1.39-.88-4.35-.88-4.63,0-.3.59-.6,1.1-.6s1.55.44,2.43.52c.88.08,1.77,0,2.43-.74.67-.73,2.01-1.92,2.3-2.14.29-.22.88-.73.8-1.4-.07-.66-3.16-1.99-3.54-2.14-.37-.14-1.03-1.18-1.18-1.48-.15-.28-.29-.66-.59-.95-.29-.3-.45-.67-.66-1.11-.23-.44-.52-.66-1.04-.81-.5-.14-2.57.07-3.46,0-.88-.08-1.7,0-2.36.22-.66.23-3.25,3.69-3.76,4.13-.52.45-5.17,4.14-5.17,4.14-2.88,1.25-10.02,1.83-10.76,1.83s-6.41-.36-13.27.15Z"/>
</svg>